<?xml version="1.0" encoding="utf-8"?>
<!-- Generator: Adobe Illustrator 23.0.0, SVG Export Plug-In . SVG Version: 6.00 Build 0)  -->
<svg version="1.1" id="Layer_1" xmlns="http://www.w3.org/2000/svg" xmlns:xlink="http://www.w3.org/1999/xlink" x="0px" y="0px"
	 viewBox="0 0 20 31" style="enable-background:new 0 0 20 31;" xml:space="preserve">
<g transform="translate(0,-952.36218)">
	<path d="M9,953.2l-8.2,7.3c-0.6,0.5-0.7,1.5-0.1,2.1c0.5,0.6,1.5,0.6,2.1,0.1l5.8-5.1v23.9c0,0.8,0.6,1.5,1.5,1.5s1.5-0.7,1.5-1.5
		v-23.9l5.8,5.1c0.6,0.5,1.5,0.4,2.1-0.1c0.5-0.6,0.5-1.5-0.1-2.1l-8.2-7.3c-0.2-0.2-0.6-0.4-1-0.4C9.6,952.9,9.3,953,9,953.2z"/>
</g>
</svg>
